<svg version="1.1" id="Layer_1" xmlns="http://www.w3.org/2000/svg" xmlns:xlink="http://www.w3.org/1999/xlink" x="0px" y="0px"
	 width="100%" viewBox="0 0 672 672" enable-background="new 0 0 672 672" xml:space="preserve">
<path fill="#000000" opacity="1.000000" stroke="none" 
	d="
M400.742981,634.551819 
	C406.350891,631.832825 413.011017,632.271606 418.382385,629.502075 
	C427.860687,624.615112 438.907501,623.334473 447.480133,616.521301 
	C449.776581,614.696106 452.650177,616.216614 455.199188,615.166443 
	C471.092560,608.618225 486.280518,600.736572 500.865845,591.653442 
	C505.531219,588.748047 508.534302,583.972839 513.484070,581.284668 
	C520.837097,577.291504 527.945496,572.953064 534.413025,567.409119 
	C549.880432,554.150330 563.801392,539.519836 576.486694,523.609802 
	C588.474670,508.574432 598.409790,492.251099 607.561462,475.417267 
	C609.032715,472.710815 610.785889,471.554871 613.846375,471.628021 
	C620.446472,471.785889 627.052979,471.676544 633.928650,471.676544 
	C629.232727,480.674683 624.893188,488.990021 619.974792,498.414581 
	C625.127563,494.140991 625.172424,487.509674 630.863220,483.870544 
	C631.510254,489.414612 629.230103,493.076813 627.208923,496.705658 
	C617.963867,513.304382 607.535645,529.095703 595.637085,543.953491 
	C570.381897,575.489807 540.067200,600.987671 505.150970,621.202271 
	C482.297485,634.433105 458.244110,644.798340 432.820923,651.818542 
	C416.709686,656.267456 400.361267,659.608276 383.678680,661.532043 
	C371.095581,662.983032 358.542358,663.167725 345.937073,663.461792 
	C315.978180,664.160522 286.632324,660.337280 257.844513,652.134949 
	C237.651932,646.381531 217.797150,639.479370 199.302643,629.568726 
	C186.520370,622.719116 174.217072,614.684570 162.739105,605.831909 
	C157.984207,602.164551 151.099930,600.347961 148.741745,593.745544 
	C142.037659,593.230591 140.867920,584.355103 134.046265,584.017700 
	C129.256943,576.815002 120.604645,573.653625 115.906876,566.117310 
	C112.370522,560.444153 107.714767,555.387573 101.343201,552.299194 
	C99.690407,551.498047 98.615448,549.464233 97.331512,547.948792 
	C68.516266,513.937073 47.955734,475.455444 34.979305,432.857910 
	C33.700745,428.660797 31.900085,424.594879 32.043819,419.815247 
	C34.430725,420.842712 34.442669,422.868378 34.965263,424.514557 
	C41.735020,445.839386 49.988792,466.553864 60.786732,486.174866 
	C80.235954,521.516113 104.840240,552.691895 135.497040,579.094360 
	C172.616089,611.062317 214.884979,633.192200 262.008423,646.104919 
	C280.146423,651.075195 298.741760,653.691772 317.469360,655.504517 
	C339.767975,657.662842 361.921417,656.742188 384.102936,653.925781 
	C431.145599,647.952698 474.334045,631.480408 514.192688,606.171387 
	C528.944580,596.804443 542.543762,585.834045 555.629700,574.137024 
	C579.831116,552.504333 599.592285,527.408325 616.265381,499.731842 
	C620.793518,492.215332 625.133545,484.578918 628.532654,476.013336 
	C623.697144,474.778473 619.242737,475.382568 614.841309,475.473755 
	C612.184937,475.528778 611.538635,477.987976 610.549988,479.855133 
	C595.867493,507.585815 577.658997,532.710632 555.214844,554.695679 
	C519.555054,589.625854 477.941040,614.476501 430.039124,628.754883 
	C420.796112,631.509949 411.685974,634.682800 401.500977,635.196777 
	C401.021667,634.959412 400.742981,634.551819 400.742981,634.551819 
z"/>
<path fill="#000000" opacity="1.000000" stroke="none" 
	d="
M427.514038,55.218811 
	C413.774078,50.562515 399.895782,48.104458 385.917633,46.107479 
	C370.577423,43.915901 355.151031,42.731098 339.666901,43.245388 
	C326.760590,43.674053 313.677704,43.554005 301.022034,45.718067 
	C278.137360,49.631245 255.598694,55.159428 233.879150,63.897312 
	C211.818787,72.772308 191.180374,84.066803 171.700729,97.535782 
	C161.457840,104.618103 151.907074,112.631264 142.597672,120.934174 
	C124.987404,136.640488 110.392235,154.887924 97.050430,174.219986 
	C95.541344,176.406662 94.177124,178.700272 92.850418,181.004562 
	C88.699623,188.213867 83.884933,190.191711 75.639763,188.266205 
	C73.728485,187.819870 71.664833,188.017365 69.670547,187.937302 
	C66.927315,187.827179 64.164566,187.818405 61.165310,186.453110 
	C63.192043,183.793869 65.257095,183.223816 67.955849,183.391785 
	C84.300369,184.408966 84.016586,184.164352 93.385132,170.573273 
	C114.070473,140.564774 139.134048,114.810371 168.929932,93.664978 
	C194.970337,75.184761 223.280869,61.400993 253.637512,51.733131 
	C269.351379,46.728645 285.465790,43.665760 301.821960,41.416771 
	C318.141846,39.172764 334.480804,37.786007 350.890381,38.417770 
	C368.586792,39.099072 386.396790,40.355190 403.622223,44.361897 
	C434.671692,51.584114 464.588806,62.075500 492.386658,78.229668 
	C515.587708,91.712479 536.705078,107.811867 555.414246,126.896202 
	C572.459290,144.282959 587.582642,163.297363 599.890930,184.456024 
	C603.536621,190.723083 607.087402,196.979538 610.416016,203.736603 
	C607.188293,204.152847 606.325378,202.230835 605.434814,200.512085 
	C592.154907,174.882660 575.054749,151.940536 554.776917,131.580170 
	C534.396912,111.117195 511.519562,93.657898 486.110992,79.683884 
	C469.742279,70.681549 452.494659,63.690353 435.041748,57.165756 
	C432.731384,56.302040 430.244629,55.910198 427.514038,55.218811 
z"/>
<path fill="#000000" opacity="1.000000" stroke="none" 
	d="
M258.935181,378.089844 
	C255.411469,413.802734 226.594101,443.217407 191.292236,447.418762 
	C177.493301,449.061035 163.820160,449.283173 150.302750,445.370331 
	C143.584152,443.425507 137.557800,440.950500 132.567505,435.377808 
	C127.867218,430.128937 120.661240,427.546539 115.590218,422.391418 
	C105.977608,412.619354 95.573235,403.386688 93.197800,388.795258 
	C93.092522,388.148590 92.922493,387.504028 92.906876,386.855499 
	C92.900909,386.607971 93.244545,386.352020 93.731064,385.686554 
	C96.653481,391.247498 99.189629,396.779144 102.336311,401.938416 
	C115.699966,423.849304 135.148087,436.995178 160.543121,440.655182 
	C187.064270,444.477478 210.868240,437.723846 230.617371,419.468964 
	C243.374512,407.677032 249.966507,392.282074 252.668152,375.147522 
	C253.556213,369.515167 253.655350,363.905273 253.654297,358.255341 
	C253.645523,311.099579 253.628159,263.943817 253.669968,216.788101 
	C253.672272,214.181152 252.929413,211.217850 256.330414,208.288269 
	C256.357483,213.142883 255.473846,217.003967 256.357849,220.970291 
	C256.744568,220.510620 257.086884,220.103729 257.535248,219.570770 
	C259.617371,224.727921 260.576080,229.909149 260.449341,235.469620 
	C259.473419,278.281158 260.127014,321.101471 259.950317,363.917938 
	C259.931152,368.561493 259.906158,373.200470 258.935181,378.089844 
M186.230881,443.125458 
	C179.113388,444.585999 171.896652,443.756256 164.719101,444.081146 
	C171.713852,445.318420 178.746933,444.630981 185.761749,444.504425 
	C186.199066,444.496552 188.524628,444.786194 186.230881,443.125458 
z"/>
<path fill="#000000" opacity="1.000000" stroke="none" 
	d="
M126.332458,541.680786 
	C130.167450,545.784851 133.162842,550.165100 137.949020,553.657104 
	C134.862000,555.080872 133.569214,553.329285 132.277374,552.082397 
	C120.788055,540.992676 109.861740,529.406860 100.211159,516.632080 
	C81.159767,491.413025 66.967773,463.655853 56.907394,433.783783 
	C50.848846,415.794220 47.050808,397.271332 44.424721,378.445251 
	C42.353622,363.597870 41.373466,348.719238 41.681519,333.800323 
	C42.328938,302.445801 47.521446,271.817444 57.533394,242.036133 
	C58.832111,238.172974 60.768284,236.389709 65.067459,236.500351 
	C72.382713,236.688644 79.713264,236.161697 87.037781,236.148056 
	C93.334312,236.136322 93.793625,236.826111 91.784706,242.585999 
	C91.200516,244.260956 91.897232,246.359909 90.166046,247.636002 
	C88.993782,248.217316 88.267738,247.383224 87.464905,246.844788 
	C78.029686,240.516708 67.942558,242.938339 62.697598,253.109711 
	C58.001507,262.216675 56.535179,272.331146 54.317963,282.198914 
	C48.629646,307.514801 47.274109,333.216827 48.506317,358.992249 
	C49.223843,374.001495 51.433121,388.939362 54.525677,403.722656 
	C56.681240,414.026917 58.759888,424.312531 62.172462,434.298309 
	C75.190216,472.390747 94.607399,506.767242 121.522697,536.804138 
	C122.965561,538.414368 124.569344,539.880432 126.332458,541.680786 
z"/>
<path fill="#000000" opacity="1.000000" stroke="none" 
	d="
M428.608582,225.768494 
	C428.632263,221.636475 428.600128,217.971512 428.689484,214.309494 
	C428.746521,211.972610 429.043854,209.674362 432.637115,208.306046 
	C433.109833,217.826843 436.570221,226.780045 432.250610,237.126007 
	C431.964752,233.885880 431.773468,231.717636 431.506287,228.689194 
	C431.003998,231.216537 430.716553,232.962219 430.301910,234.677185 
	C429.719940,237.084244 427.023529,235.731857 425.777527,237.104904 
	C426.576324,238.521362 428.400177,236.998413 429.138214,238.354156 
	C423.290955,242.151901 416.655945,241.096283 410.188934,241.379425 
	C402.087677,241.734131 394.020233,240.852905 385.851288,242.353333 
	C376.998779,243.979324 373.679657,249.739487 373.612915,256.851013 
	C373.283295,291.976501 373.433014,327.106445 373.414246,362.234833 
	C373.403198,382.886536 373.228668,403.540344 373.488617,424.188629 
	C373.561310,429.962494 371.632599,435.262573 371.052399,440.841125 
	C370.943726,441.885834 370.433319,442.928802 369.361755,443.092682 
	C361.982422,444.220947 354.674683,447.549744 347.111633,443.842529 
	C345.094208,442.853638 342.851227,443.334198 340.703217,443.237213 
	C339.016144,443.160980 336.981018,443.203339 336.939972,440.962128 
	C336.898438,438.690887 338.959961,438.696411 340.611328,438.665405 
	C347.270325,438.540253 353.940155,438.208313 360.586578,438.462036 
	C365.431946,438.646942 366.651764,436.217560 366.635956,432.113159 
	C366.606445,424.452423 366.656219,416.791382 366.655884,409.130493 
	C366.653381,353.670929 366.636200,298.211334 366.653107,242.751770 
	C366.655426,235.103973 367.044983,234.408890 374.823639,234.246735 
	C386.962891,233.993698 399.113342,234.286057 411.259094,234.336411 
	C415.747253,234.355026 420.252350,234.588470 424.719513,234.282578 
	C430.335876,233.897964 428.049286,229.292862 428.608582,225.768494 
M368.932739,373.500000 
	C368.932739,390.888062 368.932739,408.276093 368.932739,425.664154 
	C369.110199,425.662689 369.287659,425.661224 369.465118,425.659790 
	C369.465118,367.973907 369.465118,310.288025 369.465118,252.602158 
	C369.288605,252.602264 369.112122,252.602371 368.935608,252.602478 
	C368.935608,292.568329 368.935608,332.534149 368.932739,373.500000 
z"/>
<path fill="#000000" opacity="1.000000" stroke="none" 
	d="
M233.346283,176.616837 
	C224.354599,184.567459 213.317795,185.713135 202.520035,187.300125 
	C178.621292,190.812622 154.564819,193.400131 131.098267,199.392517 
	C126.624184,200.535019 122.385384,202.606583 118.049194,204.278442 
	C115.615059,205.216965 113.456841,204.887070 111.700310,202.910599 
	C109.446243,200.374207 112.466637,199.276825 113.531792,197.276138 
	C109.772812,197.468948 106.490623,198.229523 103.204437,200.131500 
	C102.475464,196.850754 102.116722,194.181747 104.827072,191.501114 
	C107.679298,197.167053 112.011887,194.955444 116.223763,194.025284 
	C138.910141,189.015137 161.780609,184.982178 184.801147,181.906601 
	C195.336960,180.499008 205.944839,179.671600 216.206345,176.691559 
	C218.438538,176.043304 220.626404,175.234665 222.814682,174.444473 
	C228.516235,172.385605 231.612289,168.678680 233.338318,162.471771 
	C240.771637,135.740967 248.824951,109.181496 256.761871,82.592285 
	C260.102936,71.399384 259.954376,70.899277 249.153442,67.218941 
	C253.373779,66.852287 258.260315,64.905777 261.530273,68.376297 
	C264.668030,71.706512 260.055542,75.590759 260.462402,79.692162 
	C264.378815,81.230034 263.740509,84.542686 262.802399,87.848541 
	C259.450165,99.661514 256.101776,111.476212 252.637939,123.256729 
	C248.704391,136.634796 244.372528,149.903381 240.786484,163.372040 
	C239.423065,168.492889 234.014465,170.998810 233.346283,176.616837 
M218.177826,179.038467 
	C210.287964,180.203552 202.646683,182.765076 194.629593,183.220490 
	C202.992020,183.223373 211.163589,182.140213 219.745758,178.903519 
	C224.372421,178.324722 227.893661,175.608551 231.563828,173.175949 
	C227.602936,175.588089 222.970276,176.627533 218.177826,179.038467 
M177.216400,186.023010 
	C167.576248,185.660141 158.433670,188.338470 149.265305,190.863235 
	C158.832489,189.232529 168.399658,187.601822 178.854202,185.884750 
	C182.494141,185.588760 186.176590,185.584473 189.637360,184.062500 
	C185.836761,185.221893 181.517517,182.860321 177.216400,186.023010 
M251.012436,110.008003 
	C250.765762,111.079185 249.919510,112.086075 250.982895,113.853745 
	C252.298737,109.165344 253.483124,104.945305 254.667511,100.725258 
	C254.380219,100.640884 254.092926,100.556511 253.805634,100.472137 
	C252.939514,103.423042 252.073395,106.373955 251.012436,110.008003 
z"/>
<path fill="#000000" opacity="1.000000" stroke="none" 
	d="
M238.096313,513.940002 
	C238.902817,514.951355 239.709335,515.962769 240.499146,516.953186 
	C240.950546,516.095032 240.790451,514.537659 242.843460,514.882019 
	C244.848770,523.750427 246.884903,532.719971 248.903976,541.693359 
	C251.404083,552.804626 254.384613,563.840088 256.176697,575.064941 
	C257.094116,580.811218 260.199524,586.412109 259.114563,592.151245 
	C258.206879,596.952698 256.032440,601.457397 258.308716,606.144287 
	C255.593887,608.744446 253.222809,606.469727 250.480240,606.587219 
	C250.166702,610.236938 248.190643,610.902527 244.735321,609.694519 
	C225.278549,602.892456 207.208847,593.575989 191.004364,580.747253 
	C190.204407,580.114014 189.041214,579.653625 189.177292,578.625977 
	C189.792099,573.983215 186.075348,572.308411 183.317886,570.258179 
	C164.424820,556.210938 149.887100,538.091858 134.497757,520.536011 
	C124.465714,509.091583 118.488152,495.983643 111.381996,483.205872 
	C107.079819,475.470032 105.202347,466.716553 101.989075,458.512909 
	C101.704216,457.785614 101.825081,456.852264 103.123222,456.236938 
	C107.202591,459.208008 107.870277,464.210876 109.578415,468.487640 
	C119.813904,494.114929 134.310577,517.024536 152.447800,537.792236 
	C173.022156,561.350525 197.677856,579.419861 225.423737,593.519287 
	C226.724823,594.180481 228.214279,594.678284 228.933472,596.139771 
	C228.428375,597.638977 227.063477,596.068665 226.147858,597.205261 
	C227.820892,598.058167 229.883209,600.201538 231.110184,598.610779 
	C232.972641,596.196167 234.339539,597.734192 235.802277,598.235962 
	C240.841797,599.964722 245.824692,601.859741 250.818878,603.719055 
	C254.581650,605.119812 255.894745,603.694580 255.086960,599.984680 
	C251.980148,585.716064 248.745895,571.474609 245.725586,557.187866 
	C242.840302,543.539795 240.156311,529.849060 237.417755,516.170288 
	C237.328323,515.723633 237.609451,515.202820 237.865112,514.356018 
	C238.012405,513.995483 238.096298,513.940002 238.096313,513.940002 
z"/>
<path fill="#000000" opacity="1.000000" stroke="none" 
	d="
M402.302582,101.597626 
	C398.487640,86.662178 394.945068,72.061562 386.334137,59.206528 
	C391.198090,60.179565 394.287628,63.615356 394.846191,67.001549 
	C395.669922,71.995262 397.872284,75.679924 400.720673,79.496193 
	C404.136566,84.072823 404.816650,89.881035 406.168854,95.188110 
	C408.518616,104.410378 411.687561,113.363762 414.165863,122.526962 
	C417.310822,134.154800 421.026398,145.702759 422.990662,157.535049 
	C423.677246,161.670929 421.245026,167.277802 416.190918,170.078857 
	C419.667175,172.403030 418.789551,173.910751 415.768250,175.417938 
	C411.958588,177.318451 407.666412,178.296173 403.760406,178.258331 
	C394.478668,178.168411 385.123108,179.359100 375.874573,177.485748 
	C374.267944,177.160309 372.553162,177.336227 370.888336,177.335587 
	C344.062592,177.325439 317.236664,177.277496 290.411224,177.366638 
	C285.901093,177.381622 282.235168,175.357727 277.417358,174.066544 
	C280.341370,172.336639 282.496338,174.818192 285.162292,172.591522 
	C280.417694,173.035507 277.055023,170.710999 273.052612,170.366806 
	C269.350708,170.048462 268.789581,166.611450 268.744080,163.428604 
	C269.240967,163.272369 269.491821,163.131027 269.545837,163.185379 
	C277.424866,171.110535 287.159332,171.195068 297.384491,170.245987 
	C303.289185,169.697937 309.328644,169.712402 316.466400,171.423386 
	C313.607178,172.128677 311.876556,172.555573 310.145935,172.982468 
	C310.171387,173.140762 310.196838,173.299042 310.222290,173.457336 
	C324.759552,173.457336 339.296814,173.457336 354.560913,173.457336 
	C353.116852,172.700333 352.302155,172.273270 350.990509,171.585678 
	C353.159821,169.898056 355.477478,169.985611 357.616272,170.148560 
	C369.875732,171.082596 382.207184,169.356842 394.452087,171.389404 
	C400.311981,172.362122 406.085114,170.861237 411.583252,168.902069 
	C419.324524,166.143631 420.394348,163.481186 418.078217,155.643860 
	C412.798065,137.776688 407.628998,119.876686 402.302582,101.597626 
z"/>
<path fill="#000000" opacity="1.000000" stroke="none" 
	d="
M649.153442,440.270935 
	C646.620300,446.180786 640.935059,445.976929 636.754456,446.095337 
	C617.447449,446.642242 598.093811,446.913971 578.800476,446.163269 
	C561.296875,445.482239 543.650513,444.900604 526.851501,438.626465 
	C510.962341,432.692078 496.652161,424.249786 483.761078,413.234924 
	C467.652161,399.470551 456.699097,382.370422 450.037842,362.380646 
	C449.370087,360.376801 449.236938,359.455017 449.421204,356.632629 
	C451.752106,356.383331 451.458160,358.499695 451.862213,359.634399 
	C460.955109,385.167694 476.788849,405.388794 499.707092,419.848145 
	C514.635498,429.266602 530.802368,435.334625 548.488770,437.621826 
	C568.399902,440.196716 588.294922,439.504730 608.256042,439.256714 
	C618.365051,439.131104 628.527405,439.919830 638.676025,440.092255 
	C642.609070,440.159058 644.742676,438.941406 645.914307,434.994293 
	C647.569214,429.419006 649.704956,423.991943 650.865601,418.257721 
	C651.212341,416.544617 651.507324,414.544403 655.272400,413.943085 
	C652.919617,422.880310 656.199951,432.299927 649.153442,440.270935 
z"/>
<path fill="#000000" opacity="1.000000" stroke="none" 
	d="
M576.229248,203.133362 
	C550.482849,196.599350 524.785706,191.947021 499.080383,187.325272 
	C489.968597,185.686981 480.665680,184.600296 471.859833,181.916885 
	C463.235596,179.288803 455.680969,174.784698 453.039551,164.634720 
	C446.679993,140.197083 440.946167,115.580650 433.344208,91.484093 
	C431.659882,86.145073 430.371887,80.610573 427.279114,75.711029 
	C425.171661,72.372421 426.947388,69.580833 432.072968,68.161690 
	C428.810089,74.068970 432.428223,78.954376 433.975861,83.827164 
	C441.462433,107.398483 447.708038,131.317657 452.946899,155.429703 
	C455.941528,169.212402 464.877106,175.655121 476.718628,178.265854 
	C501.263092,183.677246 526.112549,187.691376 550.783813,192.548126 
	C560.702026,194.500595 570.475769,197.182297 580.329956,199.468719 
	C581.867065,199.825378 583.565247,201.126923 585.040894,199.677872 
	C586.735535,198.013748 585.962708,195.898041 585.356812,194.029404 
	C581.989075,183.642609 576.387268,174.368149 570.698120,165.160645 
	C562.971375,152.655197 553.981873,141.132812 543.461609,130.831406 
	C542.536743,129.925751 541.408142,129.077072 541.540833,127.297890 
	C544.016479,126.402405 545.102905,128.531372 546.305786,129.817352 
	C563.788818,148.507584 579.236450,168.596344 588.924622,192.583755 
	C590.246704,195.857117 591.804749,199.502335 589.346924,202.525925 
	C586.655151,205.837280 582.647827,204.338165 579.086487,203.718506 
	C578.268066,203.576111 577.454895,203.403854 576.229248,203.133362 
z"/>
<path fill="#000000" opacity="1.000000" stroke="none" 
	d="
M532.096497,549.072876 
	C521.397583,562.307495 507.953979,572.366394 493.835175,581.512024 
	C477.867126,591.855469 460.964783,600.429138 442.776764,606.249268 
	C439.381226,607.335815 435.877106,608.082886 431.434143,609.245422 
	C440.107147,568.919617 447.287598,528.933350 457.268463,489.533356 
	C457.531219,488.496063 458.471527,487.542450 460.409546,488.052490 
	C456.548615,506.550873 452.692627,524.976074 448.859222,543.406006 
	C445.008209,561.920837 441.161835,580.436646 437.351807,598.959900 
	C436.149231,604.806519 437.153748,605.775208 442.765442,603.826050 
	C468.327271,594.947388 491.630890,581.981506 512.566956,564.823059 
	C518.864441,559.661926 525.009033,554.314148 531.605225,549.014221 
	C531.986633,548.976501 532.096497,549.072876 532.096497,549.072876 
z"/>
<path fill="#000000" opacity="1.000000" stroke="none" 
	d="
M122.043213,374.751221 
	C121.914566,373.063965 121.364319,371.096161 122.012466,370.549683 
	C125.582710,367.539459 124.607651,363.557251 124.612038,359.881012 
	C124.664490,315.928375 124.613693,271.975555 124.659401,228.022888 
	C124.663078,224.479340 124.044998,220.846161 125.643410,215.941055 
	C126.534248,221.660431 127.469124,225.902512 127.460571,230.380753 
	C127.376266,274.499817 127.226219,318.620148 127.497208,362.737671 
	C127.570541,374.677094 129.368515,386.511444 134.986496,397.417175 
	C135.950180,399.287903 138.114807,400.450714 138.337311,403.349976 
	C133.931732,403.270203 131.700546,400.415924 129.677231,397.558777 
	C124.934967,390.862244 123.219368,383.092712 122.043213,374.751221 
z"/>
<path fill="#000000" opacity="1.000000" stroke="none" 
	d="
M293.644653,241.471741 
	C290.267578,241.790909 287.561493,242.273880 285.300293,239.128723 
	C283.981201,237.293930 281.269989,238.863007 279.166687,239.146683 
	C277.211914,239.410324 274.573486,239.766739 274.235138,237.217972 
	C273.856689,234.367554 276.667908,234.549789 278.547150,234.462280 
	C297.647583,233.572922 316.746002,234.724426 335.846954,234.587723 
	C338.039764,234.572037 339.633942,235.578064 339.157776,237.853561 
	C338.502594,240.984604 337.326355,244.006592 336.180084,247.697708 
	C327.231262,239.782379 316.699341,241.567352 306.544647,241.414749 
	C302.389648,241.352295 298.232391,241.437119 293.644653,241.471741 
z"/>
<path fill="#000000" opacity="1.000000" stroke="none" 
	d="
M420.979675,500.016907 
	C423.433838,502.486267 422.782684,505.526672 422.509430,508.481140 
	C421.161194,523.057251 415.946289,536.611938 411.445160,550.357971 
	C404.556335,571.395569 396.632172,592.054688 388.598846,612.670044 
	C385.017670,621.860168 372.073730,628.139771 361.196014,625.522095 
	C365.442932,624.460022 368.786835,623.702454 372.085510,622.782776 
	C379.383179,620.748169 384.503265,616.697510 387.315735,609.150879 
	C398.295258,579.689514 409.684143,550.381348 418.178741,520.061707 
	C419.942810,513.765442 419.952362,507.234772 420.917908,500.412476 
	C420.996246,500.003235 420.979675,500.016907 420.979675,500.016907 
z"/>
<path fill="#000000" opacity="1.000000" stroke="none" 
	d="
M301.091431,594.962036 
	C306.560211,604.432556 311.967102,613.506348 318.781616,622.134033 
	C315.922638,622.960938 314.361023,621.259521 313.089264,619.398376 
	C309.995453,614.870605 306.894440,610.335205 304.069458,605.638611 
	C296.841980,593.623047 287.791656,582.713562 282.974152,569.228516 
	C279.054077,558.255493 275.937073,547.071838 272.794281,535.880737 
	C272.353699,534.312073 271.968353,532.639160 274.276154,530.707642 
	C281.189972,553.116211 288.810364,574.846741 301.091431,594.962036 
z"/>
<path fill="#000000" opacity="1.000000" stroke="none" 
	d="
M531.932739,548.927185 
	C534.255249,542.961060 539.356323,539.149292 543.285645,534.481140 
	C560.411865,514.134766 573.101135,491.244659 583.156067,466.768768 
	C583.710022,465.420319 583.919067,463.839203 585.841736,462.724701 
	C585.597534,466.351105 584.443787,469.407562 583.224792,472.355347 
	C572.645874,497.936737 558.670288,521.435303 539.991638,541.984802 
	C537.769531,544.429382 535.097778,546.465332 532.365479,548.881775 
	C532.096497,549.072876 531.986633,548.976501 531.932739,548.927185 
z"/>
<path fill="#000000" opacity="1.000000" stroke="none" 
	d="
M261.043457,628.001831 
	C275.662445,630.962830 289.723816,634.607666 304.816620,636.556580 
	C299.448364,640.519409 264.254425,633.280334 253.794357,626.140686 
	C256.081635,626.721069 258.368896,627.301392 261.043457,628.001831 
z"/>
<path fill="#000000" opacity="1.000000" stroke="none" 
	d="
M459.308899,271.410950 
	C463.908417,265.061981 467.277924,258.161072 474.063293,253.956299 
	C462.242004,268.825470 453.577209,285.224579 449.415039,303.755188 
	C445.915771,302.907288 447.015503,301.170593 447.372620,299.655060 
	C449.721802,289.685760 454.100830,280.569733 459.308899,271.410950 
z"/>
<path fill="#000000" opacity="1.000000" stroke="none" 
	d="
M195.686432,603.380127 
	C192.856186,601.517334 189.981934,600.281677 187.996643,597.940918 
	C188.232056,597.552185 188.467468,597.163391 188.702881,596.774658 
	C201.730469,603.297607 214.758072,609.820618 227.785660,616.343628 
	C227.561722,616.818848 227.337769,617.294067 227.113831,617.769226 
	C216.126495,614.459473 206.067505,609.005920 195.686432,603.380127 
z"/>
<path fill="#000000" opacity="1.000000" stroke="none" 
	d="
M238.986237,508.965485 
	C238.790573,510.405426 238.594894,511.845337 238.247772,513.612671 
	C238.096298,513.940002 238.012405,513.995483 237.969742,514.024780 
	C234.864838,510.627258 235.345001,506.066223 234.427551,502.048035 
	C233.063919,496.075806 232.989319,489.722443 224.302460,488.124512 
	C228.992264,485.140625 231.555222,490.457550 235.347687,488.061005 
	C234.573471,495.634552 236.634323,502.025665 238.784271,508.717346 
	C238.999832,508.994507 238.986237,508.965485 238.986237,508.965485 
z"/>
<path fill="#000000" opacity="1.000000" stroke="none" 
	d="
M583.219360,207.724609 
	C591.181580,208.554688 598.645813,205.391983 606.165161,207.696823 
	C589.288757,209.761337 572.341614,210.538086 555.328064,210.718521 
	C559.544006,208.029968 564.290527,208.841370 568.869690,208.712189 
	C573.512634,208.581223 578.186951,209.004089 583.219360,207.724609 
z"/>
<path fill="#000000" opacity="1.000000" stroke="none" 
	d="
M171.678436,418.098236 
	C164.323914,418.930603 157.278839,419.555176 150.637344,416.173859 
	C148.965408,415.322632 146.795456,415.143616 146.049042,412.883850 
	C154.543869,412.478790 162.438736,415.224762 170.536453,416.650848 
	C171.223465,416.771820 172.327271,416.591156 171.678436,418.098236 
z"/>
<path fill="#000000" opacity="1.000000" stroke="none" 
	d="
M522.526672,218.748993 
	C524.167908,218.031876 525.434631,216.965683 526.986145,218.075378 
	C525.430054,219.712006 505.060730,229.701126 501.804077,229.977020 
	C508.386810,224.507767 515.497681,222.055267 522.526672,218.748993 
z"/>
<path fill="#000000" opacity="1.000000" stroke="none" 
	d="
M372.423859,55.196671 
	C368.003601,54.479576 363.970734,53.848396 359.355377,53.126045 
	C366.108490,49.883530 376.711060,52.340469 379.096008,57.348816 
	C376.404022,58.359169 374.885620,55.927345 372.423859,55.196671 
z"/>
<path fill="#000000" opacity="1.000000" stroke="none" 
	d="
M114.683235,168.744873 
	C117.274132,165.364517 118.924919,161.698837 121.819878,159.019089 
	C122.248985,159.296829 122.678093,159.574585 123.107201,159.852325 
	C119.447670,165.807602 115.788139,171.762878 112.128609,177.718155 
	C110.774475,173.897217 113.273094,171.719147 114.683235,168.744873 
z"/>
<path fill="#000000" opacity="1.000000" stroke="none" 
	d="
M273.998962,499.089874 
	C272.902283,503.010040 270.564972,502.143616 269.904633,499.761230 
	C269.231537,497.332642 270.071411,494.370605 270.694153,491.747864 
	C270.981232,490.538818 272.508057,489.635345 273.939758,490.266937 
	C275.452606,490.934265 275.499939,492.397430 274.736847,493.647339 
	C273.741974,495.276978 272.923523,496.829376 273.998962,499.089874 
z"/>
<path fill="#000000" opacity="1.000000" stroke="none" 
	d="
M341.114044,626.702271 
	C337.867584,625.423157 334.386047,626.948547 330.709747,623.925659 
	C336.932495,623.066589 341.893555,624.507263 347.573364,624.641479 
	C345.488251,627.350220 343.409821,626.690796 341.114044,626.702271 
z"/>
<path fill="#000000" opacity="1.000000" stroke="none" 
	d="
M596.706787,193.556870 
	C597.473450,194.232544 598.041504,194.650436 598.340698,195.211609 
	C599.388062,197.176178 600.255493,199.400528 597.860229,200.829681 
	C596.411743,201.693909 594.299438,201.467773 594.045532,199.227448 
	C593.796448,197.029297 591.642395,193.700012 596.706787,193.556870 
z"/>
<path fill="#000000" opacity="1.000000" stroke="none" 
	d="
M401.162903,635.161865 
	C396.020874,637.283875 390.631897,638.461670 384.916992,637.583008 
	C389.869843,636.011902 394.777191,634.344666 400.403381,634.493469 
	C400.742981,634.551819 401.021667,634.959412 401.162903,635.161865 
z"/>
<path fill="#000000" opacity="1.000000" stroke="none" 
	d="
M421.004333,499.998535 
	C419.164459,496.327087 417.156464,492.701477 418.095062,488.303772 
	C422.244781,491.087982 421.295166,495.324097 421.074463,499.670288 
	C420.979675,500.016907 420.996246,500.003235 421.004333,499.998535 
z"/>
<path fill="#000000" opacity="1.000000" stroke="none" 
	d="
M225.261627,375.724457 
	C226.115891,380.098755 224.914734,383.933868 222.017578,387.227844 
	C221.991699,383.106873 223.183365,379.351013 225.261627,375.724457 
z"/>
<path fill="#000000" opacity="1.000000" stroke="none" 
	d="
M239.010223,509.006409 
	C239.269089,506.584229 237.379410,504.173859 239.215515,500.404663 
	C240.487671,504.359894 241.446457,507.222534 242.315948,510.112061 
	C242.597260,511.046936 242.008514,511.848022 241.137833,511.907135 
	C239.481873,512.019470 239.906250,510.293274 239.136139,509.215393 
	C238.986237,508.965485 238.999832,508.994507 239.010223,509.006409 
z"/>
<path fill="#000000" opacity="1.000000" stroke="none" 
	d="
M538.548401,215.628906 
	C537.083801,215.908218 535.955078,216.403091 534.067200,215.129929 
	C538.672668,213.371811 542.582642,211.731598 547.218872,212.974533 
	C544.445984,213.825470 541.673157,214.676392 538.548401,215.628906 
z"/>
<path fill="#000000" opacity="1.000000" stroke="none" 
	d="
M321.251221,621.800049 
	C324.354248,621.381714 327.044342,621.730042 330.715912,623.740479 
	C326.368652,624.478271 323.320679,625.371948 321.251221,621.800049 
z"/>
<path fill="#000000" opacity="1.000000" stroke="none" 
	d="
M546.649536,464.682251 
	C547.971375,464.854889 548.658508,465.624054 547.700256,466.243164 
	C544.616028,468.235809 541.184021,468.547424 537.528748,467.230103 
	C540.463318,466.389282 543.397949,465.548492 546.649536,464.682251 
z"/>
<path fill="#000000" opacity="1.000000" stroke="none" 
	d="
M273.087708,156.016312 
	C270.033600,154.719955 269.747772,152.131958 269.904327,148.837311 
	C273.447968,150.379669 273.880219,152.817337 273.087708,156.016312 
z"/>
</svg>